<?xml version="1.0" standalone="no"?>
<!DOCTYPE svg PUBLIC "-//W3C//DTD SVG 20010904//EN"
 "http://www.w3.org/TR/2001/REC-SVG-20010904/DTD/svg10.dtd">
<svg version="1.0" xmlns="http://www.w3.org/2000/svg"
 width="512.000000pt" height="512.000000pt" viewBox="0 0 512.000000 512.000000"
 preserveAspectRatio="xMidYMid meet">
<metadata>
Created by potrace 1.14, written by Peter Selinger 2001-2017
</metadata>
<g transform="translate(0.000000,512.000000) scale(0.100000,-0.100000)"
fill="#000000" stroke="none">
<path d="M2330 5110 c-494 -48 -950 -230 -1350 -538 -195 -150 -448 -432 -594
-662 -63 -99 -186 -351 -230 -471 -49 -134 -102 -340 -128 -499 -31 -195 -31
-565 0 -760 45 -276 116 -498 237 -745 132 -269 269 -460 489 -681 221 -220
412 -357 681 -489 247 -121 469 -192 745 -237 195 -31 565 -31 760 0 276 45
498 116 745 237 269 132 460 269 681 489 220 221 357 412 489 681 88 179 132
296 180 476 63 240 78 371 78 649 0 278 -15 409 -78 649 -48 180 -92 297 -180
476 -132 269 -269 460 -489 681 -221 220 -412 357 -681 489 -246 121 -474 193
-740 235 -147 23 -475 34 -615 20z m550 -226 c339 -49 662 -168 950 -352 253
-161 541 -449 702 -702 144 -226 262 -507 317 -757 41 -185 53 -302 53 -513 0
-275 -29 -467 -108 -713 -120 -371 -300 -663 -579 -942 -279 -279 -571 -459
-942 -579 -246 -79 -438 -108 -713 -108 -275 0 -467 29 -713 108 -371 120
-663 300 -942 579 -374 373 -589 803 -670 1340 -23 151 -23 479 0 630 54 355
169 667 353 955 161 253 449 541 702 702 475 303 1045 429 1590 352z"/>
<path d="M1774 4255 c-40 -17 -64 -51 -64 -91 0 -19 140 -393 325 -870 179
-460 325 -843 323 -850 -2 -8 -82 -179 -178 -380 l-175 -366 -44 5 c-170 18
-350 -84 -423 -239 -170 -363 203 -736 566 -566 242 113 316 437 147 646 -17
21 -31 43 -31 48 0 5 66 128 147 274 l147 264 46 0 46 0 147 -264 c81 -146
147 -269 147 -274 0 -5 -14 -27 -31 -48 -134 -166 -120 -412 31 -564 126 -126
314 -158 481 -84 54 24 58 25 87 10 86 -45 277 -64 324 -32 37 24 53 75 38
120 -14 43 -47 65 -107 72 -27 3 -69 10 -95 15 l-46 11 13 31 c24 59 35 148
25 215 -32 223 -241 388 -461 365 l-44 -4 -154 323 c-85 178 -165 346 -179
373 l-24 50 326 843 c186 481 326 857 326 875 0 87 -109 133 -172 73 -13 -11
-169 -324 -347 -693 -178 -370 -327 -673 -331 -673 -4 0 -130 255 -280 568
-353 733 -386 799 -407 810 -35 18 -69 20 -99 7z m259 -2797 c22 -14 51 -43
65 -65 23 -33 27 -48 27 -113 0 -65 -4 -80 -27 -113 -14 -22 -43 -51 -65 -65
-33 -23 -48 -27 -113 -27 -65 0 -80 4 -113 27 -61 41 -91 93 -95 164 -6 92 36
165 120 208 51 26 152 18 201 -16z m1280 0 c22 -14 51 -43 65 -65 23 -33 27
-48 27 -113 0 -65 -4 -80 -27 -113 -14 -22 -43 -51 -65 -65 -33 -23 -48 -27
-113 -27 -65 0 -80 4 -113 27 -61 41 -91 93 -95 164 -6 92 36 165 120 208 51
26 152 18 201 -16z"/>
</g>
</svg>
